<svg preserveAspectRatio="none" overflow="visible" style="display: block;" width="22.1536" height="22.7" viewBox="0 0 22.1536 22.7" fill="none" xmlns="http://www.w3.org/2000/svg">
<g id="Group 203">
<path id="Vector 521" d="M0.6 4.1V2.6C0.6 1.49543 1.49543 0.6 2.6 0.6H3.1M7.1 22.1H6.1C4.99543 22.1 4.1 21.2046 4.1 20.1V2.1C4.0219 1.35512 3.77899 1.04046 3.1 0.6M19.1 19.1V2.6C19.1 1.49543 18.2046 0.6 17.1 0.6H3.1" stroke="#F2F0EF" stroke-width="1.2" stroke-linecap="round"/>
<path id="Vector 528" d="M8.54357 20.098C8.36661 21.4327 7.73379 22.1 6.1 22.1H19.6C20.8253 22.1 21.3833 21.4328 21.5466 20.0983C21.6137 19.5501 21.1523 19.1 20.6 19.1H9.6C9.04772 19.1 8.61617 19.5505 8.54357 20.098Z" stroke="#F2F0EF" stroke-width="1.2" stroke-linecap="round"/>
<path id="Vector 527" d="M0.6 4.1H3.6" stroke="#F2F0EF" stroke-width="1.2" stroke-linecap="round"/>
<path id="Vector 522" d="M6.6 3.6H16.6" stroke="#F2F0EF" stroke-width="1.2" stroke-linecap="round"/>
<path id="Vector 523" d="M6.6 6.6H16.6" stroke="#F2F0EF" stroke-width="1.2" stroke-linecap="round"/>
<path id="Vector 524" d="M6.6 9.6H16.6" stroke="#F2F0EF" stroke-width="1.2" stroke-linecap="round"/>
<path id="Vector 525" d="M6.6 12.6H16.6" stroke="#F2F0EF" stroke-width="1.2" stroke-linecap="round"/>
<path id="Vector 526" d="M6.6 15.6H16.6" stroke="#F2F0EF" stroke-width="1.2" stroke-linecap="round"/>
</g>
</svg>
